<svg width="28" height="36" viewBox="0 0 28 36" fill="none" xmlns="http://www.w3.org/2000/svg">
<path opacity="0.87" d="M0.126465 36V3.375C0.126465 2.5213 0.443421 1.74163 1.18315 0.922214C1.5846 0.443882 2.49119 0 3.50146 0H23.7515C25.6154 0 27.1265 1.51102 27.1265 3.375V36L13.6265 28.125L0.126465 36Z" fill="#514F4F"/>
<path d="M18.4582 13.8642H14.3137V9.71959C14.3137 9.34164 14.0044 9.03241 13.6265 9.03241C13.2485 9.03241 12.9393 9.34164 12.9393 9.71959V13.8642H8.79473C8.41678 13.8642 8.10754 14.1734 8.10754 14.5514C8.10754 14.7403 8.18485 14.9121 8.3094 15.0367C8.43396 15.1612 8.60575 15.2385 8.79473 15.2385H12.9393V19.3831C12.9393 19.5721 13.0166 19.7439 13.1412 19.8684C13.2657 19.993 13.4375 20.0703 13.6265 20.0703C14.0044 20.0703 14.3137 19.7611 14.3137 19.3831V15.2385H18.4582C18.8362 15.2385 19.1454 14.9293 19.1454 14.5514C19.1454 14.1734 18.8362 13.8642 18.4582 13.8642Z" fill="white"/>
</svg>
